<svg xmlns="http://www.w3.org/2000/svg" xmlns:xlink="http://www.w3.org/1999/xlink" preserveAspectRatio="xMidYMid" width="447.5" height="505.5" viewBox="0 0 447.5 505.5">
  <defs>
    <style>
      .cls-1 {
        fill: #fff;
        fill-rule: evenodd;
      }
    </style>
  </defs>
  <path d="M353.758,154.013 C362.821,147.574 371.514,140.406 379.481,132.439 C396.181,115.738 407.353,95.189 410.936,74.578 C414.866,51.986 409.100,31.009 395.122,17.029 C383.972,5.880 368.867,-0.014 351.440,-0.014 C326.624,-0.014 300.478,11.897 279.710,32.666 C246.473,65.905 227.098,111.785 216.672,144.528 C208.952,111.626 193.569,67.205 163.663,37.299 C147.615,21.253 127.105,13.013 107.739,13.013 C91.912,13.013 76.849,18.515 65.609,29.757 C40.616,54.750 43.993,98.649 73.152,127.808 C83.548,138.204 95.701,146.840 108.512,154.014 L0.000,154.014 L0.000,282.014 L32.000,282.014 L32.000,506.014 L416.000,506.014 L416.000,282.013 L448.000,282.013 L448.000,154.013 L353.758,154.013 ZM305.163,58.122 C319.025,44.261 336.324,35.986 351.437,35.986 C356.788,35.986 364.291,37.113 369.663,42.485 C382.678,55.498 375.369,85.638 354.023,106.984 C332.049,128.956 302.493,144.068 276.806,154.013 L251.470,154.013 C260.755,125.240 277.500,85.785 305.163,58.122 ZM84.967,74.458 C84.616,69.898 84.942,61.334 91.065,55.212 C96.187,50.090 102.959,49.013 107.739,49.013 L107.739,49.013 C118.368,49.013 129.473,54.021 138.205,62.754 C155.141,79.689 169.088,106.639 178.539,140.692 C178.794,141.612 179.043,142.527 179.287,143.434 C178.379,143.192 177.464,142.943 176.544,142.686 C142.492,133.235 115.543,119.287 98.607,102.351 C90.693,94.438 85.722,84.271 84.967,74.458 ZM192.000,474.013 L64.000,474.013 L64.000,266.013 L192.000,266.013 L192.000,474.013 ZM192.000,250.013 L32.000,250.013 L32.000,186.013 L192.000,186.013 L192.000,250.013 ZM384.000,474.013 L256.000,474.013 L256.000,266.013 L384.000,266.013 L384.000,474.013 ZM416.000,250.013 L256.000,250.013 L256.000,186.013 L416.000,186.013 L416.000,250.013 Z" class="cls-1"/>
</svg>
