<?xml version="1.0" encoding="utf-8"?>
<!-- Generator: Adobe Illustrator 19.1.0, SVG Export Plug-In . SVG Version: 6.00 Build 0)  -->
<svg version="1.1" id="Layer_1" xmlns="http://www.w3.org/2000/svg" xmlns:xlink="http://www.w3.org/1999/xlink" x="0px" y="0px"
	 viewBox="0 0 62.4 62.4" style="enable-background:new 0 0 62.4 62.4;" xml:space="preserve">
<style type="text/css">
	.st0{fill:#C187F4;}
	.st1{fill:#FFFFFF;}
</style>
<path class="st0" d="M62.4,31.2c0,17.2-14,31.2-31.2,31.2C14,62.4,0,48.4,0,31.2C0,14,14,0,31.2,0c9.7,0,18.3,4.4,24,11.3
	c0.5,0.6,0.9,1.1,1.3,1.7c0.2,0.3,0.4,0.6,0.6,0.9c0.4,0.7,0.9,1.4,1.3,2.1C60.9,20.5,62.4,25.7,62.4,31.2z"/>
<path class="st1" d="M57.1,13.9c-1.7,3.1-4.3,7.6-5.5,9.6c-0.3-0.3-0.6-0.5-0.9-0.8c-0.3-0.2-0.6-0.3-0.9-0.4c1.4-2,4.6-6.4,6.6-9.2
	c-0.4-0.6-0.9-1.2-1.3-1.7c-2.3,3.1-6.3,8.7-7.5,10.4c-0.1,0.2-0.2,0.4-0.4,0.6c0,0-0.1,0.1-0.1,0.1c-0.8,1.4-1.5,2.6-1.9,3.3
	c-0.3,0-0.6,0-1,0.1c-1.4,0.3-2.6,1.1-3.4,2.4c-1.1,1.8-1.3,3.5-1.4,5c-0.2,1.8-0.3,2.8-1.5,3.6c-0.4,0.3-0.4,0.6-0.3,1.2
	c0.1,0.6,0.5,0.8,0.9,0.9c1.2,0.1,2.4,0.1,3.6-0.2c3.3-0.7,5.8-2.8,7.1-4.5c1.3-1.8,1.4-3.4,1.2-4.5c-0.1-0.3-0.1-0.5-0.2-0.8
	c0.5-0.6,1.3-1.7,2.2-3.1c0,0,0.1-0.1,0.1-0.2c0.2-0.2,0.3-0.5,0.5-0.7c0.9-1.4,3.4-5.8,5.3-9.2C58,15.3,57.6,14.6,57.1,13.9z
	 M47.7,33.2c-1,1.3-3.1,3.1-5.8,3.7c-0.3,0.1-0.7,0.1-1,0.2c0.6-1.1,0.7-2.4,0.9-3.5c0.1-1.3,0.2-2.7,1.1-4c0.5-0.8,1.3-1.3,2.1-1.5
	c0.3-0.1,0.5-0.1,0.8-0.1c0.1,0,0.3,0.1,0.4,0c0.4,0.1,0.7,0.2,1.1,0.4c0.7,0.5,1.2,1.2,1.4,2C48.7,31.2,48.4,32.2,47.7,33.2z
	 M49.1,27.2c-0.2-0.2-0.5-0.5-0.8-0.6c-0.2-0.2-0.5-0.3-0.8-0.4c0.3-0.6,0.7-1.3,1.2-2.1c0.3,0.1,0.6,0.2,0.9,0.4
	c0.3,0.2,0.6,0.5,0.9,0.8C50,26.1,49.5,26.7,49.1,27.2z"/>
<g>
	<path class="st1" d="M36.1,12c-4.3-0.2-21.9-1.7-21.3,6.4c0.2,2.7,2.7,4.5,5.1,5.1c2.3,0.6,13.8-1.7,9.7,5.2
		c-1.8,3-6.9,2.4-9.7,3.3c-6,1.9-7.6,10.9-2.4,14.8c5.8,4.4,16.5,2.8,19.5-4c0.6-1.5-1.5-2.7-2.2-1.3c-1.8,4.1-5.9,5.3-10.2,4.9
		C18,45.9,13.3,37.1,22,34.1c4.3-1.6,10.1-1.1,11.4-6.9c0.8-3.7-2.5-5.8-5.7-6.1c-1.5-0.1-3.3,0.5-4.8,0.1c-2.5,0.3-3.3-1.5-2.5-5.7
		c1-0.2,1.9-0.4,2.9-0.5c4.3-0.6,8.5-0.7,12.8-0.6C37.7,14.5,37.7,12,36.1,12L36.1,12z"/>
</g>
</svg>
