<?xml version="1.0" encoding="utf-8"?>
<!-- Generator: Adobe Illustrator 19.1.0, SVG Export Plug-In . SVG Version: 6.00 Build 0)  -->
<svg version="1.1" id="Layer_1" xmlns="http://www.w3.org/2000/svg" xmlns:xlink="http://www.w3.org/1999/xlink" x="0px" y="0px"
	 viewBox="-110 111.1 62.4 62.4" style="enable-background:new -110 111.1 62.4 62.4;" xml:space="preserve">
<style type="text/css">
	.st0{display:none;fill:#C187F4;}
	.st1{fill:#FFFFFF;}
	.st2{fill:#31B0E3;}
</style>
<path class="st0" d="M-47.6,142.3c0,17.2-14,31.2-31.2,31.2s-31.2-14-31.2-31.2s14-31.2,31.2-31.2c9.7,0,18.3,4.4,24,11.3
	c0.5,0.6,0.9,1.1,1.3,1.7c0.2,0.3,0.4,0.6,0.6,0.9c0.4,0.7,0.9,1.4,1.3,2.1C-49.1,131.6-47.6,136.8-47.6,142.3z"/>
<path class="st1" d="M-52.9,125c-1.7,3.1-4.3,7.6-5.5,9.6c-0.3-0.3-0.6-0.5-0.9-0.8c-0.3-0.2-0.6-0.3-0.9-0.4c1.4-2,4.6-6.4,6.6-9.2
	c-0.4-0.6-0.9-1.2-1.3-1.7c-2.3,3.1-6.3,8.7-7.5,10.4c-0.1,0.2-0.2,0.4-0.4,0.6l-0.1,0.1c-0.8,1.4-1.5,2.6-1.9,3.3
	c-0.3,0-0.6,0-1,0.1c-1.4,0.3-2.6,1.1-3.4,2.4c-1.1,1.8-1.3,3.5-1.4,5c-0.2,1.8-0.3,2.8-1.5,3.6c-0.4,0.3-0.4,0.6-0.3,1.2
	c0.1,0.6,0.5,0.8,0.9,0.9c1.2,0.1,2.4,0.1,3.6-0.2c3.3-0.7,5.8-2.8,7.1-4.5c1.3-1.8,1.4-3.4,1.2-4.5c-0.1-0.3-0.1-0.5-0.2-0.8
	c0.5-0.6,1.3-1.7,2.2-3.1c0,0,0.1-0.1,0.1-0.2c0.2-0.2,0.3-0.5,0.5-0.7c0.9-1.4,3.4-5.8,5.3-9.2C-52,126.4-52.4,125.7-52.9,125z
	 M-62.3,144.3c-1,1.3-3.1,3.1-5.8,3.7c-0.3,0.1-0.7,0.1-1,0.2c0.6-1.1,0.7-2.4,0.9-3.5c0.1-1.3,0.2-2.7,1.1-4
	c0.5-0.8,1.3-1.3,2.1-1.5c0.3-0.1,0.5-0.1,0.8-0.1c0.1,0,0.3,0.1,0.4,0c0.4,0.1,0.7,0.2,1.1,0.4c0.7,0.5,1.2,1.2,1.4,2
	C-61.3,142.3-61.6,143.3-62.3,144.3z M-60.9,138.3c-0.2-0.2-0.5-0.5-0.8-0.6c-0.2-0.2-0.5-0.3-0.8-0.4c0.3-0.6,0.7-1.3,1.2-2.1
	c0.3,0.1,0.6,0.2,0.9,0.4c0.3,0.2,0.6,0.5,0.9,0.8C-60,137.2-60.5,137.8-60.9,138.3z"/>
<g>
	<path class="st1" d="M-73.9,123.1c-4.3-0.2-21.9-1.7-21.3,6.4c0.2,2.7,2.7,4.5,5.1,5.1c2.3,0.6,13.8-1.7,9.7,5.2
		c-1.8,3-6.9,2.4-9.7,3.3c-6,1.9-7.6,10.9-2.4,14.8c5.8,4.4,16.5,2.8,19.5-4c0.6-1.5-1.5-2.7-2.2-1.3c-1.8,4.1-5.9,5.3-10.2,4.9
		c-6.6-0.5-11.3-9.3-2.6-12.3c4.3-1.6,10.1-1.1,11.4-6.9c0.8-3.7-2.5-5.8-5.7-6.1c-1.5-0.1-3.3,0.5-4.8,0.1
		c-2.5,0.3-3.3-1.5-2.5-5.7c1-0.2,1.9-0.4,2.9-0.5c4.3-0.6,8.5-0.7,12.8-0.6C-72.3,125.6-72.3,123.1-73.9,123.1L-73.9,123.1z"/>
</g>
<g id="vortex_2_">
	<path id="XMLID_79_" class="st2" d="M-47.6,142.2c0-17.2-14-31.2-31.2-31.2s-31.2,14-31.2,31.2s14,31.2,31.2,31.2
		S-47.6,159.5-47.6,142.2z M-109.1,142.2c0-15.4,12.5-27.9,27.9-27.9c15.4,0,27.9,12.5,27.9,27.9s-12.5,27.9-27.9,27.9
		C-96.6,170.2-109.1,157.7-109.1,142.2z"/>
	<path id="XMLID_76_" class="st2" d="M-63.9,155.5c7.9-11.3,5.2-26.8-6.1-34.7c-11.3-7.9-26.8-5.2-34.7,6.1s-5.2,26.8,6.1,34.7
		C-87.4,169.5-71.8,166.8-63.9,155.5z M-104.2,127.3c7.1-10.1,21-12.6,31.1-5.5c10.1,7.1,12.6,21,5.5,31.1
		c-7.1,10.1-21,12.6-31.1,5.5C-108.9,151.3-111.3,137.4-104.2,127.3z"/>
	<path id="XMLID_73_" class="st2" d="M-79.5,156.3c10.4-3.7,15.8-15.1,12-25.5c-3.7-10.4-15.1-15.8-25.5-12
		c-10.4,3.7-15.8,15.1-12,25.5C-101.3,154.7-89.8,160.1-79.5,156.3z M-92.8,119.3c9.3-3.3,19.5,1.5,22.9,10.8
		c3.3,9.3-1.5,19.5-10.8,22.9c-9.3,3.3-19.5-1.5-22.9-10.8C-106.9,132.9-102.1,122.6-92.8,119.3z"/>
	<path id="XMLID_70_" class="st2" d="M-87.4,150.2c8.8,1,16.6-5.4,17.6-14.1c1-8.8-5.4-16.6-14.1-17.6c-8.8-1-16.6,5.4-17.6,14.1
		C-102.5,141.3-96.2,149.2-87.4,150.2z M-84,118.9c7.9,0.9,13.5,7.9,12.7,15.8c-0.9,7.9-7.9,13.5-15.8,12.7
		c-7.9-0.9-13.5-7.9-12.7-15.8C-98.9,123.7-91.8,118-84,118.9z"/>
	<path id="XMLID_67_" class="st2" d="M-94.6,139.7c4.2,5.6,12.3,6.8,17.9,2.5c5.6-4.2,6.8-12.3,2.5-17.9c-4.2-5.6-12.3-6.8-17.9-2.5
		C-97.7,126-98.9,134.1-94.6,139.7z M-74.5,124.5c3.8,5,2.8,12.2-2.2,16c-5,3.8-12.2,2.8-16-2.2c-3.8-5-2.8-12.2,2.2-16
		C-85.5,118.5-78.3,119.5-74.5,124.5z"/>
	<path id="XMLID_61_" class="st2" d="M-92.6,131.5c0.5,5.6,5.5,9.7,11.2,9.2c5.6-0.5,9.7-5.5,9.2-11.2c-0.5-5.6-5.5-9.7-11.2-9.2
		C-89,120.8-93.1,125.8-92.6,131.5z M-72.5,129.5c0.5,5-3.2,9.5-8.2,10c-5,0.5-9.5-3.2-10-8.2c-0.5-5,3.2-9.5,8.2-10
		C-77.5,120.8-73,124.5-72.5,129.5z"/>
	<path id="XMLID_58_" class="st2" d="M-76.8,122.9c-0.5-0.3-1-0.5-1.6-0.6c-4.3-1.2-8.7,1.4-9.9,5.8c-0.1,0.4-0.2,0.8-0.2,1.3
		c-0.5,4,2,7.8,6,8.8c4.4,1.2,8.8-1.4,10-5.8C-71.4,128.5-73.3,124.6-76.8,122.9z M-87,131.6c0-0.1,0-0.1,0-0.2
		c-0.1-0.9-0.1-1.9,0.2-2.9c1-3.9,5.1-6.2,9-5.2c0.5,0.1,0.9,0.3,1.3,0.5c3,1.5,4.6,5,3.7,8.4c-1,3.9-5,6.2-8.9,5.2
		C-84.5,136.7-86.5,134.4-87,131.6C-87,131.7-87,131.7-87,131.6z"/>
</g>
</svg>
