<?xml version="1.0" encoding="utf-8"?>
<!-- Generator: Adobe Illustrator 19.1.0, SVG Export Plug-In . SVG Version: 6.00 Build 0)  -->
<svg version="1.1" id="Layer_1" xmlns="http://www.w3.org/2000/svg" xmlns:xlink="http://www.w3.org/1999/xlink" x="0px" y="0px"
	 viewBox="0 0 62.4 62.4" style="enable-background:new 0 0 62.4 62.4;" xml:space="preserve">
<style type="text/css">
	.st0{fill:#34C6C6;}
	.st1{fill:#FFFFFF;}
</style>
<circle class="st0" cx="31.2" cy="31.2" r="31.2"/>
<path class="st1" d="M50,30.2c0-10.4-8.4-18.8-18.8-18.8c-10.4,0-18.8,8.4-18.8,18.8c0,2.5,0.5,4.9,1.4,7.1c0,0.1,0.1,0.2,0.1,0.4
	c1.6,6.4,3.5,8.9,7.5,9.9c0,0,0.1,0.1,0.1,0.1c0.6,0.5,1.9,1.3,3.5,1.3c0.6,0,1.3-0.1,2.1-0.5c1.4-0.7,3.7-2.5,2.1-7.5
	c-1-3.2-1.5-5.7-2.3-10c-0.5-2.4-1.4-4.1-2.7-5c-1-0.7-2.3-0.9-3.7-0.7c-2.8,0.5-3.7,2.8-3.9,3.3c-0.5,0.3-1.3,1-1.9,1.9
	c0-0.1,0-0.3,0-0.4c0-9.1,7.4-16.5,16.5-16.5c9.1,0,16.5,7.4,16.5,16.5c0,0.1,0,0.3,0,0.4c-0.6-1-1.4-1.6-1.9-1.9
	c-0.2-0.4-1.1-2.7-3.9-3.3c-1.4-0.3-2.6,0-3.7,0.7c-1.3,0.9-2.3,2.6-2.7,5c-0.8,4.3-1.4,6.8-2.3,10c-1.5,5,0.7,6.8,2.1,7.5
	c0.7,0.3,1.4,0.5,2.1,0.5c1.6,0,2.9-0.8,3.5-1.3c0.1,0,0.1-0.1,0.1-0.1c4-1,5.8-3.5,7.5-9.9c0-0.1,0.1-0.3,0.1-0.4
	C49.5,35.1,50,32.7,50,30.2z M20.8,27.4c0.9-0.2,1.6-0.1,2.2,0.4c0.9,0.6,1.6,1.9,1.9,3.8c0.8,4.3,1.4,7,2.4,10.2
	c0.8,2.7,0.5,4.5-1.1,5.2c-1.6,0.7-2.9-0.1-3.6-0.6l-4.3-16.8c0,0,0-0.1,0-0.1C18.4,29.4,18.9,27.7,20.8,27.4z M17,30.3l4,15.6
	c-2.9-1-4.3-3.2-5.7-8.6C14.3,33.3,15.9,31.2,17,30.3z M36.1,46.8c-1.6-0.7-1.9-2.4-1.1-5.2c1-3.2,1.6-5.9,2.4-10.2
	c0.4-1.9,1-3.2,1.9-3.8c0.6-0.4,1.3-0.5,2.2-0.4c1.9,0.4,2.4,1.9,2.4,2c0,0,0,0,0,0.1l-4.3,16.8C39,46.8,37.7,47.6,36.1,46.8z
	 M47,37.3c-1.4,5.4-2.8,7.6-5.7,8.6l4-15.6C46.4,31.2,48,33.4,47,37.3z"/>
</svg>
