<?xml version="1.0" encoding="utf-8"?>
<!-- Generator: Adobe Illustrator 19.1.0, SVG Export Plug-In . SVG Version: 6.00 Build 0)  -->
<svg version="1.1" id="Layer_1" xmlns="http://www.w3.org/2000/svg" xmlns:xlink="http://www.w3.org/1999/xlink" x="0px" y="0px"
	 viewBox="0 0 62.4 62.4" style="enable-background:new 0 0 62.4 62.4;" xml:space="preserve">
<style type="text/css">
	.st0{fill:#CC406E;}
	.st1{fill:#FFFFFF;}
</style>
<path class="st0" d="M62.4,31.2c0,2.7-0.3,5.3-1,7.8c-0.6,2.5-1.6,4.8-2.8,7C53.4,55.7,43,62.4,31.2,62.4C19.3,62.4,9,55.7,3.7,46
	c-1.2-2.2-2.1-4.5-2.8-7c-0.6-2.5-1-5.1-1-7.8C0,14,14,0,31.2,0C48.4,0,62.4,14,62.4,31.2z"/>
<path class="st1" d="M47.8,30.6c0-0.2,0-0.5,0-0.6c0-0.1,0-0.2,0-0.2v-0.2C47.3,26,46,22.9,43.5,20c0-0.1-0.1-0.1-0.2-0.2
	c-0.2-0.2-0.5-0.4-0.7-0.7c-0.1-0.1-0.3-0.2-0.4-0.3c-3.1-2.8-6.6-4.2-10.9-4.3c0,0,0,0,0,0h0c-5.4,0.1-8.8,2.2-11.1,4.1
	c-0.1,0-0.1,0.1-0.2,0.2c-0.4,0.5-0.9,0.9-1.3,1.3c-0.1,0.1-0.1,0.1-0.2,0.2c-1.4,1.7-2.3,3.2-2.9,4.9c0,0,0,0,0,0
	c-0.7,1.8-1,3.4-1.1,5.1c0,0,0,0.1,0,0.1v1.9c0,0,0,0.1,0,0.1c0.3,3.3,1.3,6.1,3.2,8.8c0.1,0.1,0.2,0.3,0.3,0.4
	c0.2,0.3,0.5,0.6,0.7,0.9c0.1,0.1,0.2,0.2,0.3,0.3c0,0,0,0,0.1,0.1c0.1,0.1,0.3,0.3,0.5,0.5c0,0,0.1,0.1,0.1,0.1
	c0.1,0.1,0.1,0.1,0.2,0.2c0.3,0.3,0.6,0.5,0.9,0.8c0.4,0.1,0.9,0.2,1.4,0.2c2.5,0,4.5-2,4.5-4.5c0,2.5,2,4.5,4.5,4.5
	c2.5,0,4.5-2,4.5-4.5c0,1.4,0.7,2.7,1.7,3.5c1.3-3,2.3-6.2,2.4-10.3V31c0-1.4-0.2-2.6-0.5-3.7c0.8-0.5,1.5-1.2,1.6-2.4
	c2.2,0.7,4.1,2.7,5.3,4.8c0,0.4,0.1,0.7,0,1.1c0,0.1,0.1,0.2,0.1,0.4v0c0,0.1,0,0.1,0,0.2c0,0.1,0,0.1,0,0.2c0,0.4-0.1,0.8-0.1,1.2
	c0,0.1,0,0.3-0.1,0.4c0,0.3-0.1,0.5-0.1,0.8c0,0.2-0.1,0.3-0.1,0.5c0,0.2-0.1,0.5-0.2,0.7c0,0.2-0.1,0.3-0.1,0.5
	c-0.1,0.2-0.1,0.4-0.2,0.6c0,0.1-0.1,0.3-0.1,0.4c-0.1,0.2-0.2,0.4-0.2,0.6c-0.1,0.1-0.1,0.3-0.2,0.4c-0.1,0.2-0.2,0.4-0.3,0.6
	c-0.1,0.1-0.1,0.2-0.2,0.3c-0.1,0.3-0.3,0.6-0.5,0.8c-0.1,0.1-0.2,0.3-0.3,0.4c-0.1,0.1-0.2,0.3-0.3,0.4c-0.1,0.1-0.2,0.3-0.3,0.4
	c-0.1,0.1-0.2,0.2-0.3,0.3c-0.1,0.1-0.2,0.3-0.4,0.4c-0.1,0.1-0.2,0.2-0.3,0.3c-0.1,0.1-0.3,0.3-0.4,0.4c-0.1,0.1-0.2,0.2-0.2,0.2
	c-0.2,0.1-0.3,0.3-0.5,0.4c-0.1,0-0.1,0.1-0.2,0.1c-0.7,0.5-1.4,1-2.2,1.5c0.5,0.2,0.9,0.2,1.5,0.2c0.4,0,0.8,0,1.2-0.2
	c1.2-0.9,2.2-1.9,3.1-3c0,0,0,0,0,0c0.1-0.1,0.2-0.3,0.3-0.4c1.8-2.5,2.8-5.5,3.1-9.1C47.9,31.5,47.9,31,47.8,30.6z M20.7,42.1
	c-0.4-0.2-0.5-0.5-0.8-0.7c-0.1-0.1-0.2-0.2-0.2-0.3c0,0,0,0,0,0c-0.2-0.3-0.4-0.5-0.6-0.8c0,0,0-0.1-0.1-0.1
	c-0.2-0.3-0.4-0.5-0.6-0.8c0-0.1-0.1-0.1-0.1-0.2c-0.2-0.3-0.3-0.5-0.5-0.8c0-0.1-0.1-0.2-0.1-0.3c-0.1-0.3-0.3-0.5-0.4-0.8
	c-0.1-0.1-0.1-0.3-0.2-0.4c-0.1-0.2-0.2-0.5-0.3-0.8c-0.1-0.2-0.1-0.4-0.2-0.5c-0.1-0.2-0.1-0.5-0.2-0.7c-0.1-0.2-0.1-0.5-0.2-0.8
	c0-0.2-0.1-0.4-0.1-0.6c-0.1-0.5-0.1-0.9-0.2-1.4v-1.9c0-0.4,0.1-0.8,0.1-1.1c0-0.1,0-0.3,0.1-0.4c0-0.2,0.1-0.4,0.1-0.6
	c0.1-0.4,0.2-0.8,0.3-1.1c0,0,0,0,0,0c0.1-0.5,0.3-1,0.5-1.4c2.8-1.5,5.9-2.8,9.9-3.1c0.2-0.1,0.6,0,0.9-0.1h0.5
	c0.3,0,0.7-0.1,0.9,0.1c1.4,0.1,2.6,0.4,3.7,0.7c0,0.1-0.1,0.4,0.1,0.5c0,0.4,0.1,0.7,0.2,1c0.1,0.2,0.1,0.3,0.2,0.5c0,0,0,0,0,0
	c0.1,0.1,0.2,0.3,0.2,0.4c0.3,0.4,0.6,0.8,1,1.1C30.4,32.2,26.1,37.7,20.7,42.1z M39.4,24.7c-0.1,0.6-0.3,1-0.9,1.3
	c-0.2,0.1-0.5,0.2-0.8,0.2c-0.9,0-1.7-0.4-1.9-0.6c0,0,0,0,0,0c0,0,0,0,0-0.1c-0.6-0.6-1.1-1.1-1.2-2.1c0-0.1,0-0.1,0-0.2
	c0,0,0,0,0-0.1c0-0.1,0-0.1,0-0.2c0-0.1,0-0.1,0-0.2c0.1-0.7,0.4-1.1,1.1-1.4c0.2-0.1,0.5-0.1,0.8-0.1c1,0,1.9,0.6,2.4,1.2
	c0,0,0,0,0,0c0,0,0,0,0,0C39.3,23.2,39.5,23.9,39.4,24.7z M39.8,21.5c-0.3-0.4-0.8-0.8-1.3-1.1c0,0,0,0,0,0c-0.6-0.3-1.3-0.6-2-0.6
	c0,0,0,0,0,0c-0.5,0-1,0-1.5,0.2c-0.8-1.8-2-3.1-3.7-4c1.1,0,2.1,0.2,3,0.4c0.2,0,0.4,0.1,0.6,0.1c0.2,0,0.4,0.1,0.6,0.2
	c0.3,0.1,0.5,0.2,0.8,0.2c0.2,0.1,0.4,0.2,0.6,0.2c0.2,0.1,0.4,0.2,0.6,0.2c0.2,0.1,0.3,0.1,0.4,0.2c0.3,0.1,0.6,0.3,0.9,0.5
	c0.1,0.1,0.2,0.1,0.3,0.2c0.4,0.2,0.8,0.5,1.1,0.8c0,0,0,0,0,0c0.4,0.3,0.9,0.7,1.3,1.1C40.9,20.5,39.5,20.8,39.8,21.5z"/>
<g>
	<path class="st1" d="M61.4,39c-0.6,2.5-1.6,4.8-2.8,7c-0.2,0-0.5,0-0.7,0c-1.8,0-3.4-0.8-4.5-2c-1.1,1.2-2.7,2-4.5,2
		c-1.8,0-3.4-0.8-4.5-2c-0.8,0.9-1.8,1.5-2.9,1.8c-1,0.3-2.4,0.3-3.5-0.1c-0.7-0.2-1.2-0.5-1.8-1c-0.3-0.2-0.5-0.5-0.8-0.7
		c-1.1,1.2-2.7,2-4.4,2c-1.8,0-3.4-0.8-4.5-2c-1.1,1.2-2.7,2-4.5,2c-0.6,0-1.3-0.1-1.9-0.3c-1-0.3-1.9-0.9-2.6-1.7
		c-1.1,1.2-2.7,2-4.5,2c-1.8,0-3.4-0.8-4.5-2c-1.1,1.2-2.7,2-4.5,2c-0.2,0-0.5,0-0.7,0c-1.2-2.2-2.1-4.5-2.8-7
		c0.3,0.3,0.5,0.7,0.5,1.1c0,1.6,1.3,3,3,3s3-1.3,3-3c0-0.8,0.7-1.5,1.5-1.5c0.8,0,1.5,0.7,1.5,1.5c0,1.6,1.3,3,3,3
		c1.4,0,2.6-1,2.9-2.3c0-0.2,0.1-0.4,0.1-0.6c0-0.8,0.7-1.5,1.5-1.5c0.8,0,1.5,0.7,1.5,1.5c0,0.3,0,0.6,0.1,0.9
		c0.3,0.9,1,1.6,1.9,1.9c0.3,0.1,0.6,0.2,0.9,0.2c1.6,0,3-1.3,3-3c0-0.8,0.7-1.5,1.5-1.5s1.5,0.7,1.5,1.5c0,1.6,1.3,3,3,3s3-1.3,3-3
		c0-0.8,0.7-1.5,1.5-1.5c0.8,0,1.5,0.7,1.5,1.5c0,0.9,0.4,1.8,1.1,2.3c0.3,0.2,0.6,0.4,0.9,0.5c0.6,0.2,1.2,0.2,1.7,0.1
		c1-0.3,1.8-1,2.1-1.9c0,0,0-0.1,0-0.1c0.1-0.3,0.1-0.6,0.1-0.9c0-0.8,0.7-1.5,1.5-1.5c0.8,0,1.5,0.7,1.5,1.5c0,0.2,0,0.4,0.1,0.6
		C46.4,42,47.6,43,49,43c1.6,0,3-1.3,3-3c0-0.8,0.7-1.5,1.5-1.5s1.5,0.7,1.5,1.5c0,1.6,1.3,3,3,3c1.6,0,3-1.3,3-3
		C60.9,39.6,61.1,39.2,61.4,39z"/>
</g>
</svg>
