<?xml version="1.0" encoding="utf-8"?>
<!-- Generator: Adobe Illustrator 19.1.0, SVG Export Plug-In . SVG Version: 6.00 Build 0)  -->
<svg version="1.1" id="Layer_1" xmlns="http://www.w3.org/2000/svg" xmlns:xlink="http://www.w3.org/1999/xlink" x="0px" y="0px"
	 viewBox="0 0 62.4 62.4" style="enable-background:new 0 0 62.4 62.4;" xml:space="preserve">
<style type="text/css">
	.st0{fill:#54BA54;}
	.st1{fill:#FFFFFF;}
</style>
<circle class="st0" cx="31.2" cy="31.2" r="31.2"/>
<g>
	<path class="st1" d="M49.3,16.9H35.8c-0.2-0.9-0.6-1.7-1.2-2.3l4.1-4.1c0.5-0.5,0.5-1.2,0-1.7s-1.2-0.5-1.7,0l-4.5,4.5
		c-0.4-0.1-0.9-0.2-1.3-0.2c-0.5,0-0.9,0.1-1.3,0.2l-4.5-4.5c-0.5-0.5-1.2-0.5-1.7,0c-0.5,0.5-0.5,1.2,0,1.7l4.1,4.1
		c-0.6,0.6-1,1.4-1.2,2.3H13c-2,0-3.6,1.6-3.6,3.6v22c0,2,1.6,3.6,3.6,3.6h36.3c2,0,3.6-1.6,3.6-3.6v-22
		C53,18.5,51.3,16.9,49.3,16.9z M31.2,15.5c0.9,0,1.8,0.6,2.1,1.4h-4.2C29.4,16.1,30.2,15.5,31.2,15.5z M50.5,42.6
		c0,0.7-0.5,1.2-1.2,1.2H13c-0.7,0-1.2-0.5-1.2-1.2v-22c0-0.7,0.5-1.2,1.2-1.2h36.3c0.7,0,1.2,0.5,1.2,1.2L50.5,42.6L50.5,42.6z"/>
	<path class="st1" d="M38.7,21H17.4c-2.1,0-3.9,1.7-3.9,3.9v13.3c0,2.1,1.7,3.9,3.9,3.9h21.3c2.1,0,3.9-1.7,3.9-3.9V24.9
		C42.5,22.8,40.8,21,38.7,21z M40.1,38.2c0,0.8-0.7,1.5-1.5,1.5H17.4c-0.8,0-1.5-0.7-1.5-1.5V24.9c0-0.8,0.7-1.5,1.5-1.5h21.3
		c0.8,0,1.5,0.7,1.5,1.5V38.2z"/>
	<circle class="st1" cx="46.2" cy="22.8" r="1.5"/>
	<circle class="st1" cx="46.2" cy="27.3" r="1.5"/>
	<circle class="st1" cx="46.2" cy="31.8" r="1.5"/>
	<path class="st1" d="M21.5,25.1h-1.1c-1.5,0-2.6,1.2-2.6,2.6v1.5c0,0.7,0.5,1.2,1.2,1.2c0.7,0,1.2-0.5,1.2-1.2v-1.5
		c0-0.1,0.1-0.2,0.2-0.2h1.1c0.7,0,1.2-0.5,1.2-1.2C22.7,25.7,22.2,25.1,21.5,25.1z"/>
	<path class="st1" d="M47.5,39.7h-2.6c-0.7,0-1.2,0.5-1.2,1.2s0.5,1.2,1.2,1.2h2.6c0.7,0,1.2-0.5,1.2-1.2S48.2,39.7,47.5,39.7z"/>
	<path class="st1" d="M47.5,36.4h-2.6c-0.7,0-1.2,0.5-1.2,1.2c0,0.7,0.5,1.2,1.2,1.2h2.6c0.7,0,1.2-0.5,1.2-1.2
		C48.7,36.9,48.2,36.4,47.5,36.4z"/>
</g>
</svg>
