<?xml version="1.0" encoding="utf-8"?>
<!-- Generator: Adobe Illustrator 19.1.0, SVG Export Plug-In . SVG Version: 6.00 Build 0)  -->
<svg version="1.1" id="Layer_1" xmlns="http://www.w3.org/2000/svg" xmlns:xlink="http://www.w3.org/1999/xlink" x="0px" y="0px"
	 viewBox="0 0 62.4 62.4" style="enable-background:new 0 0 62.4 62.4;" xml:space="preserve">
<style type="text/css">
	.st0{fill:#F4863B;}
	.st1{fill:#FFFFFF;}
</style>
<path class="st0" d="M62.4,31.2c0,17.2-14,31.2-31.2,31.2c-6.1,0-11.8-1.8-16.6-4.8C10.5,55,7,51.5,4.5,47.3C1.6,42.6,0,37.1,0,31.2
	C0,14,14,0,31.2,0C48.4,0,62.4,14,62.4,31.2z"/>
<g>
	<g transform="translate(0,-952.3622)">
		<g>
			<path class="st1" d="M19.3,978.4c0-0.1-0.2-0.2-0.3-0.3l-2.9-1l-1-2.9c0-0.1-0.1-0.1-0.1-0.2c-0.2-0.2-0.5-0.2-0.7,0
				c0,0-0.1,0.1-0.1,0.2l-1,2.9l-2.9,1c-0.2,0.1-0.4,0.3-0.3,0.6c0,0.1,0.2,0.2,0.3,0.3l2.9,1l1,2.9c0.1,0.2,0.3,0.4,0.6,0.3
				c0.1,0,0.2-0.1,0.3-0.3l1-2.9l2.9-1C19.2,978.9,19.3,978.6,19.3,978.4z M15.6,979.1c-0.1,0-0.2,0.1-0.3,0.3l-0.6,1.8l-0.6-1.8
				c0-0.1-0.2-0.2-0.3-0.3l-1.8-0.6l1.8-0.6c0.1,0,0.2-0.2,0.3-0.3l0.6-1.8l0.6,1.8c0,0.1,0.2,0.2,0.3,0.3l1.8,0.6L15.6,979.1z"/>
		</g>
	</g>
	<g transform="translate(0,-952.3622)">
		<g>
			<path class="st1" d="M49.8,991.8c0-0.1-0.2-0.2-0.3-0.3l-2.9-1l-1-2.9c0-0.1-0.1-0.1-0.1-0.2c-0.2-0.2-0.5-0.2-0.6,0
				c0,0-0.1,0.1-0.1,0.2l-1,2.9l-2.9,1c-0.2,0.1-0.4,0.3-0.3,0.6c0,0.1,0.2,0.2,0.3,0.3l2.9,1l1,2.9c0.1,0.2,0.3,0.4,0.6,0.3
				c0.1-0.1,0.2-0.2,0.3-0.3l1-2.9l2.9-1C49.7,992.3,49.8,992,49.8,991.8z M46.1,992.5c-0.1,0-0.2,0.2-0.3,0.3l-0.6,1.8l-0.6-1.8
				c0-0.1-0.2-0.2-0.3-0.3l-1.8-0.6l1.8-0.6c0.1,0,0.2-0.1,0.3-0.3l0.6-1.8l0.6,1.8c0,0.1,0.1,0.2,0.3,0.3l1.8,0.6L46.1,992.5z"/>
		</g>
	</g>
	<g>
		<g>
			<path class="st1" d="M35.9,26.1c-0.6-0.6-1.5-0.7-2.2-0.2L4.5,47.3c2.5,4.2,6,7.7,10.1,10.3l21.5-29.3
				C36.6,27.6,36.5,26.7,35.9,26.1z M12.8,54.3l-5.1-5.1l3.7-2.7l1.8,7.3L12.8,54.3z M14.4,52l-1.6-6.6l2.7-2l1.4,5.2L14.4,52z
				 M20.5,43.8l-2.4,3.2l-1.2-4.5l2.7-2L20.5,43.8L20.5,43.8z M21.8,42l-0.7-2.6l5.7-4.2L21.8,42z"/>
		</g>
	</g>
	<g transform="translate(0,-952.3622)">
		<g>
			<path class="st1" d="M45.2,969.2c0-0.1-0.2-0.2-0.3-0.3l-2.9-1l-1-2.9c0-0.1-0.1-0.1-0.1-0.2c-0.2-0.2-0.5-0.2-0.7,0
				c0,0-0.1,0.1-0.1,0.2l-1,2.9l-2.9,1c-0.2,0.1-0.4,0.3-0.3,0.6c0,0.1,0.1,0.2,0.3,0.3l2.9,1l1,2.9c0.1,0.2,0.3,0.4,0.6,0.3
				c0.1,0,0.2-0.1,0.3-0.3l1-2.9l2.9-1C45.1,969.7,45.2,969.4,45.2,969.2z M41.5,969.9c-0.1,0-0.2,0.1-0.3,0.3l-0.6,1.8l-0.6-1.8
				c0-0.1-0.1-0.2-0.3-0.3l-1.8-0.6l1.8-0.6c0.1,0,0.2-0.2,0.3-0.3l0.6-1.8l0.6,1.8c0,0.1,0.2,0.2,0.3,0.3l1.8,0.6L41.5,969.9z"/>
		</g>
	</g>
</g>
</svg>
