<svg xmlns="http://www.w3.org/2000/svg" viewBox="0 0 512 512" enable-background="new 0 0 512 512">
  <g>
    <g>
      <path fill="#a3d9ff" d="M501,470.8l-57.3-163.3V41.2H69.4v260.4L11,470.8H501z M40.2,451l45.9-134.5h339.9L472.9,451H40.2z M89.2,61h333.6v234.6    H89.2V61z"/>
      <polygon fill="#a3d9ff" points="146.5,186.1 223.7,219.5 223.7,204.9 162.2,178.9 224.7,153.8 224.7,139.2 146.5,172.6   "/>
      <polygon fill="#a3d9ff" points="233.1,239.3 244.5,239.3 278.9,117.3 267.5,117.3   "/>
      <polygon fill="#a3d9ff" points="287.3,153.8 348.8,178.9 287.3,204.9 287.3,219.5 365.5,186.1 365.5,172.6 287.3,139.2   "/>
    </g>
  </g>
</svg>
